<svg width="203" height="24" viewBox="0 0 203 24" fill="none" xmlns="http://www.w3.org/2000/svg">
<path d="M29.9631 17C29.8458 17 29.7551 16.968 29.6911 16.904C29.6271 16.8293 29.5951 16.7387 29.5951 16.632V6.184C29.5951 6.06667 29.6271 5.976 29.6911 5.912C29.7551 5.83733 29.8458 5.8 29.9631 5.8H30.6991C30.8271 5.8 30.9231 5.832 30.9871 5.896C31.0511 5.94933 31.0885 5.992 31.0991 6.024L36.4111 14.184V6.184C36.4111 6.06667 36.4431 5.976 36.5071 5.912C36.5711 5.83733 36.6618 5.8 36.7791 5.8H37.5471C37.6645 5.8 37.7551 5.83733 37.8191 5.912C37.8938 5.976 37.9311 6.06667 37.9311 6.184V16.616C37.9311 16.7227 37.8938 16.8133 37.8191 16.888C37.7551 16.9627 37.6698 17 37.5631 17H36.7951C36.6778 17 36.5871 16.968 36.5231 16.904C36.4698 16.84 36.4325 16.7973 36.4111 16.776L31.1151 8.696V16.632C31.1151 16.7387 31.0778 16.8293 31.0031 16.904C30.9391 16.968 30.8485 17 30.7311 17H29.9631ZM43.9045 17.16C43.0938 17.16 42.4165 17.0053 41.8725 16.696C41.3285 16.3867 40.9125 15.96 40.6245 15.416C40.3365 14.8613 40.1765 14.232 40.1445 13.528C40.1338 13.3467 40.1285 13.1173 40.1285 12.84C40.1285 12.552 40.1338 12.3227 40.1445 12.152C40.1765 11.4373 40.3365 10.808 40.6245 10.264C40.9232 9.72 41.3445 9.29333 41.8885 8.984C42.4325 8.67467 43.1045 8.52 43.9045 8.52C44.7045 8.52 45.3765 8.67467 45.9205 8.984C46.4645 9.29333 46.8805 9.72 47.1685 10.264C47.4672 10.808 47.6325 11.4373 47.6645 12.152C47.6752 12.3227 47.6805 12.552 47.6805 12.84C47.6805 13.1173 47.6752 13.3467 47.6645 13.528C47.6325 14.232 47.4725 14.8613 47.1845 15.416C46.8965 15.96 46.4805 16.3867 45.9365 16.696C45.3925 17.0053 44.7152 17.16 43.9045 17.16ZM43.9045 15.928C44.5658 15.928 45.0938 15.72 45.4885 15.304C45.8832 14.8773 46.0965 14.2587 46.1285 13.448C46.1392 13.288 46.1445 13.0853 46.1445 12.84C46.1445 12.5947 46.1392 12.392 46.1285 12.232C46.0965 11.4213 45.8832 10.808 45.4885 10.392C45.0938 9.96533 44.5658 9.752 43.9045 9.752C43.2432 9.752 42.7098 9.96533 42.3045 10.392C41.9098 10.808 41.7018 11.4213 41.6805 12.232C41.6698 12.392 41.6645 12.5947 41.6645 12.84C41.6645 13.0853 41.6698 13.288 41.6805 13.448C41.7018 14.2587 41.9098 14.8773 42.3045 15.304C42.7098 15.72 43.2432 15.928 43.9045 15.928ZM57.8459 17.16C56.8645 17.16 56.0485 16.9787 55.3979 16.616C54.7579 16.2533 54.2725 15.7467 53.9419 15.096C53.6112 14.4453 53.4299 13.688 53.3979 12.824C53.3872 12.3867 53.3819 11.9173 53.3819 11.416C53.3819 10.9147 53.3872 10.4347 53.3979 9.976C53.4299 9.112 53.6112 8.35467 53.9419 7.704C54.2725 7.05333 54.7579 6.54667 55.3979 6.184C56.0485 5.82133 56.8645 5.64 57.8459 5.64C58.5819 5.64 59.2272 5.74133 59.7819 5.944C60.3365 6.14667 60.7952 6.41867 61.1579 6.76C61.5312 7.10133 61.8139 7.48533 62.0059 7.912C62.1979 8.328 62.3045 8.76 62.3259 9.208C62.3365 9.304 62.3045 9.384 62.2299 9.448C62.1659 9.512 62.0859 9.544 61.9899 9.544H61.1099C61.0139 9.544 60.9285 9.51733 60.8539 9.464C60.7899 9.41067 60.7419 9.31467 60.7099 9.176C60.5285 8.344 60.1872 7.77333 59.6859 7.464C59.1952 7.15467 58.5765 7 57.8299 7C56.9765 7 56.2992 7.24533 55.7979 7.736C55.2965 8.216 55.0245 8.98933 54.9819 10.056C54.9499 10.9307 54.9499 11.8267 54.9819 12.744C55.0245 13.8107 55.2965 14.5893 55.7979 15.08C56.2992 15.56 56.9765 15.8 57.8299 15.8C58.5765 15.8 59.1952 15.6453 59.6859 15.336C60.1872 15.0267 60.5285 14.456 60.7099 13.624C60.7419 13.4853 60.7899 13.3893 60.8539 13.336C60.9285 13.2827 61.0139 13.256 61.1099 13.256H61.9899C62.0859 13.256 62.1659 13.288 62.2299 13.352C62.3045 13.416 62.3365 13.496 62.3259 13.592C62.3045 14.04 62.1979 14.4773 62.0059 14.904C61.8139 15.32 61.5312 15.6987 61.1579 16.04C60.7952 16.3813 60.3365 16.6533 59.7819 16.856C59.2272 17.0587 58.5819 17.16 57.8459 17.16ZM64.6301 17C64.5235 17 64.4328 16.968 64.3581 16.904C64.2941 16.8293 64.2621 16.7387 64.2621 16.632V9.064C64.2621 8.95733 64.2941 8.86667 64.3581 8.792C64.4328 8.71733 64.5235 8.68 64.6301 8.68H65.3661C65.4728 8.68 65.5635 8.71733 65.6381 8.792C65.7128 8.86667 65.7501 8.95733 65.7501 9.064V9.768C65.9635 9.40533 66.2568 9.13333 66.6301 8.952C67.0035 8.77067 67.4515 8.68 67.9741 8.68H68.6141C68.7208 8.68 68.8061 8.71733 68.8701 8.792C68.9341 8.856 68.9661 8.94133 68.9661 9.048V9.704C68.9661 9.81067 68.9341 9.896 68.8701 9.96C68.8061 10.024 68.7208 10.056 68.6141 10.056H67.6541C67.0781 10.056 66.6248 10.2267 66.2941 10.568C65.9635 10.8987 65.7981 11.352 65.7981 11.928V16.632C65.7981 16.7387 65.7608 16.8293 65.6861 16.904C65.6115 16.968 65.5208 17 65.4141 17H64.6301ZM73.496 17.16C72.3973 17.16 71.5227 16.824 70.872 16.152C70.2213 15.4693 69.864 14.5413 69.8 13.368C69.7893 13.2293 69.784 13.0533 69.784 12.84C69.784 12.616 69.7893 12.4347 69.8 12.296C69.8427 11.5387 70.0187 10.8773 70.328 10.312C70.6373 9.736 71.0587 9.29333 71.592 8.984C72.136 8.67467 72.7707 8.52 73.496 8.52C74.3067 8.52 74.984 8.69067 75.528 9.032C76.0827 9.37333 76.504 9.85867 76.792 10.488C77.08 11.1173 77.224 11.8533 77.224 12.696V12.968C77.224 13.0853 77.1867 13.176 77.112 13.24C77.048 13.304 76.9627 13.336 76.856 13.336H71.32C71.32 13.3467 71.32 13.368 71.32 13.4C71.32 13.432 71.32 13.4587 71.32 13.48C71.3413 13.9173 71.4373 14.328 71.608 14.712C71.7787 15.0853 72.024 15.3893 72.344 15.624C72.664 15.8587 73.048 15.976 73.496 15.976C73.88 15.976 74.2 15.9173 74.456 15.8C74.712 15.6827 74.92 15.5547 75.08 15.416C75.24 15.2667 75.3467 15.1547 75.4 15.08C75.496 14.9413 75.5707 14.8613 75.624 14.84C75.6773 14.808 75.7627 14.792 75.88 14.792H76.648C76.7547 14.792 76.84 14.824 76.904 14.888C76.9787 14.9413 77.0107 15.0213 77 15.128C76.9893 15.288 76.904 15.4853 76.744 15.72C76.584 15.944 76.3547 16.168 76.056 16.392C75.7573 16.616 75.3947 16.8027 74.968 16.952C74.5413 17.0907 74.0507 17.16 73.496 17.16ZM71.32 12.232H75.704V12.184C75.704 11.704 75.6133 11.2773 75.432 10.904C75.2613 10.5307 75.0107 10.2373 74.68 10.024C74.3493 9.8 73.9547 9.688 73.496 9.688C73.0373 9.688 72.6427 9.8 72.312 10.024C71.992 10.2373 71.7467 10.5307 71.576 10.904C71.4053 11.2773 71.32 11.704 71.32 12.184V12.232ZM82.1771 17.16C81.5905 17.16 81.0838 17.0587 80.6571 16.856C80.2305 16.6427 79.8785 16.36 79.6011 16.008C79.3345 15.6453 79.1318 15.2347 78.9931 14.776C78.8651 14.3173 78.7905 13.832 78.7691 13.32C78.7585 13.1493 78.7531 12.9893 78.7531 12.84C78.7531 12.6907 78.7585 12.5307 78.7691 12.36C78.7905 11.8587 78.8651 11.3787 78.9931 10.92C79.1318 10.4613 79.3345 10.0507 79.6011 9.688C79.8785 9.32533 80.2305 9.04267 80.6571 8.84C81.0838 8.62667 81.5905 8.52 82.1771 8.52C82.8065 8.52 83.3291 8.632 83.7451 8.856C84.1611 9.08 84.5025 9.35733 84.7691 9.688V6.008C84.7691 5.90133 84.8011 5.816 84.8651 5.752C84.9398 5.67733 85.0305 5.64 85.1371 5.64H85.9051C86.0118 5.64 86.0971 5.67733 86.1611 5.752C86.2358 5.816 86.2731 5.90133 86.2731 6.008V16.632C86.2731 16.7387 86.2358 16.8293 86.1611 16.904C86.0971 16.968 86.0118 17 85.9051 17H85.1851C85.0678 17 84.9771 16.968 84.9131 16.904C84.8491 16.8293 84.8171 16.7387 84.8171 16.632V15.96C84.5505 16.3013 84.2038 16.5893 83.7771 16.824C83.3505 17.048 82.8171 17.16 82.1771 17.16ZM82.5131 15.864C83.0465 15.864 83.4731 15.7413 83.7931 15.496C84.1131 15.2507 84.3531 14.9413 84.5131 14.568C84.6731 14.184 84.7585 13.7947 84.7691 13.4C84.7798 13.2293 84.7851 13.0267 84.7851 12.792C84.7851 12.5467 84.7798 12.3387 84.7691 12.168C84.7585 11.7947 84.6678 11.4267 84.4971 11.064C84.3371 10.7013 84.0918 10.4027 83.7611 10.168C83.4411 9.93333 83.0251 9.816 82.5131 9.816C81.9691 9.816 81.5371 9.93867 81.2171 10.184C80.8971 10.4187 80.6678 10.7333 80.5291 11.128C80.3905 11.512 80.3105 11.928 80.2891 12.376C80.2785 12.6853 80.2785 12.9947 80.2891 13.304C80.3105 13.752 80.3905 14.1733 80.5291 14.568C80.6678 14.952 80.8971 15.2667 81.2171 15.512C81.5371 15.7467 81.9691 15.864 82.5131 15.864ZM89.0208 17C88.9141 17 88.8234 16.968 88.7488 16.904C88.6848 16.8293 88.6528 16.7387 88.6528 16.632V9.048C88.6528 8.94133 88.6848 8.856 88.7488 8.792C88.8234 8.71733 88.9141 8.68 89.0208 8.68H89.7888C89.8954 8.68 89.9808 8.71733 90.0448 8.792C90.1088 8.856 90.1408 8.94133 90.1408 9.048V16.632C90.1408 16.7387 90.1088 16.8293 90.0448 16.904C89.9808 16.968 89.8954 17 89.7888 17H89.0208ZM88.8928 7.128C88.7861 7.128 88.6954 7.096 88.6208 7.032C88.5568 6.95733 88.5247 6.86667 88.5247 6.76V5.896C88.5247 5.78933 88.5568 5.704 88.6208 5.64C88.6954 5.56533 88.7861 5.528 88.8928 5.528H89.9008C90.0074 5.528 90.0928 5.56533 90.1568 5.64C90.2314 5.704 90.2688 5.78933 90.2688 5.896V6.76C90.2688 6.86667 90.2314 6.95733 90.1568 7.032C90.0928 7.096 90.0074 7.128 89.9008 7.128H88.8928ZM95.7758 17C95.1784 17 94.6931 16.888 94.3198 16.664C93.9464 16.4293 93.6744 16.104 93.5038 15.688C93.3331 15.2613 93.2478 14.76 93.2478 14.184V9.96H91.9998C91.8931 9.96 91.8024 9.928 91.7278 9.864C91.6638 9.78933 91.6318 9.69867 91.6318 9.592V9.048C91.6318 8.94133 91.6638 8.856 91.7278 8.792C91.8024 8.71733 91.8931 8.68 91.9998 8.68H93.2478V6.008C93.2478 5.90133 93.2798 5.816 93.3438 5.752C93.4184 5.67733 93.5091 5.64 93.6158 5.64H94.3678C94.4744 5.64 94.5598 5.67733 94.6238 5.752C94.6984 5.816 94.7358 5.90133 94.7358 6.008V8.68H96.7198C96.8264 8.68 96.9118 8.71733 96.9758 8.792C97.0504 8.856 97.0878 8.94133 97.0878 9.048V9.592C97.0878 9.69867 97.0504 9.78933 96.9758 9.864C96.9118 9.928 96.8264 9.96 96.7198 9.96H94.7358V14.072C94.7358 14.5733 94.8211 14.968 94.9918 15.256C95.1624 15.544 95.4664 15.688 95.9038 15.688H96.8798C96.9864 15.688 97.0718 15.7253 97.1358 15.8C97.2104 15.864 97.2478 15.9493 97.2478 16.056V16.632C97.2478 16.7387 97.2104 16.8293 97.1358 16.904C97.0718 16.968 96.9864 17 96.8798 17H95.7758ZM106.94 17.16C105.958 17.16 105.142 16.9787 104.492 16.616C103.852 16.2533 103.366 15.7467 103.036 15.096C102.705 14.4453 102.524 13.688 102.492 12.824C102.481 12.3867 102.476 11.9173 102.476 11.416C102.476 10.9147 102.481 10.4347 102.492 9.976C102.524 9.112 102.705 8.35467 103.036 7.704C103.366 7.05333 103.852 6.54667 104.492 6.184C105.142 5.82133 105.958 5.64 106.94 5.64C107.676 5.64 108.321 5.74133 108.876 5.944C109.43 6.14667 109.889 6.41867 110.252 6.76C110.625 7.10133 110.908 7.48533 111.1 7.912C111.292 8.328 111.398 8.76 111.42 9.208C111.43 9.304 111.398 9.384 111.324 9.448C111.26 9.512 111.18 9.544 111.084 9.544H110.204C110.108 9.544 110.022 9.51733 109.948 9.464C109.884 9.41067 109.836 9.31467 109.804 9.176C109.622 8.344 109.281 7.77333 108.78 7.464C108.289 7.15467 107.67 7 106.924 7C106.07 7 105.393 7.24533 104.892 7.736C104.39 8.216 104.118 8.98933 104.076 10.056C104.044 10.9307 104.044 11.8267 104.076 12.744C104.118 13.8107 104.39 14.5893 104.892 15.08C105.393 15.56 106.07 15.8 106.924 15.8C107.67 15.8 108.289 15.6453 108.78 15.336C109.281 15.0267 109.622 14.456 109.804 13.624C109.836 13.4853 109.884 13.3893 109.948 13.336C110.022 13.2827 110.108 13.256 110.204 13.256H111.084C111.18 13.256 111.26 13.288 111.324 13.352C111.398 13.416 111.43 13.496 111.42 13.592C111.398 14.04 111.292 14.4773 111.1 14.904C110.908 15.32 110.625 15.6987 110.252 16.04C109.889 16.3813 109.43 16.6533 108.876 16.856C108.321 17.0587 107.676 17.16 106.94 17.16ZM115.676 17.16C115.143 17.16 114.657 17.0533 114.22 16.84C113.783 16.6267 113.431 16.3387 113.164 15.976C112.897 15.6133 112.764 15.2027 112.764 14.744C112.764 14.008 113.063 13.4213 113.66 12.984C114.257 12.5467 115.036 12.2587 115.996 12.12L118.38 11.784V11.32C118.38 10.808 118.231 10.408 117.932 10.12C117.644 9.832 117.169 9.688 116.508 9.688C116.028 9.688 115.639 9.784 115.34 9.976C115.052 10.168 114.849 10.4133 114.732 10.712C114.668 10.872 114.556 10.952 114.396 10.952H113.676C113.559 10.952 113.468 10.92 113.404 10.856C113.351 10.7813 113.324 10.696 113.324 10.6C113.324 10.44 113.383 10.2427 113.5 10.008C113.628 9.77333 113.82 9.544 114.076 9.32C114.332 9.096 114.657 8.90933 115.052 8.76C115.457 8.6 115.948 8.52 116.524 8.52C117.164 8.52 117.703 8.60533 118.14 8.776C118.577 8.936 118.919 9.15467 119.164 9.432C119.42 9.70933 119.601 10.024 119.708 10.376C119.825 10.728 119.884 11.0853 119.884 11.448V16.632C119.884 16.7387 119.847 16.8293 119.772 16.904C119.708 16.968 119.623 17 119.516 17H118.78C118.663 17 118.572 16.968 118.508 16.904C118.444 16.8293 118.412 16.7387 118.412 16.632V15.944C118.273 16.136 118.087 16.328 117.852 16.52C117.617 16.7013 117.324 16.856 116.972 16.984C116.62 17.1013 116.188 17.16 115.676 17.16ZM116.012 15.96C116.449 15.96 116.849 15.8693 117.212 15.688C117.575 15.496 117.857 15.2027 118.06 14.808C118.273 14.4133 118.38 13.9173 118.38 13.32V12.872L116.524 13.144C115.767 13.2507 115.196 13.432 114.812 13.688C114.428 13.9333 114.236 14.248 114.236 14.632C114.236 14.9307 114.321 15.1813 114.492 15.384C114.673 15.576 114.897 15.72 115.164 15.816C115.441 15.912 115.724 15.96 116.012 15.96ZM122.552 17C122.445 17 122.355 16.968 122.28 16.904C122.216 16.8293 122.184 16.7387 122.184 16.632V9.064C122.184 8.95733 122.216 8.86667 122.28 8.792C122.355 8.71733 122.445 8.68 122.552 8.68H123.288C123.395 8.68 123.485 8.71733 123.56 8.792C123.635 8.86667 123.672 8.95733 123.672 9.064V9.768C123.885 9.40533 124.179 9.13333 124.552 8.952C124.925 8.77067 125.373 8.68 125.896 8.68H126.536C126.643 8.68 126.728 8.71733 126.792 8.792C126.856 8.856 126.888 8.94133 126.888 9.048V9.704C126.888 9.81067 126.856 9.896 126.792 9.96C126.728 10.024 126.643 10.056 126.536 10.056H125.576C125 10.056 124.547 10.2267 124.216 10.568C123.885 10.8987 123.72 11.352 123.72 11.928V16.632C123.72 16.7387 123.683 16.8293 123.608 16.904C123.533 16.968 123.443 17 123.336 17H122.552ZM131.13 17.16C130.544 17.16 130.037 17.0587 129.61 16.856C129.184 16.6427 128.832 16.36 128.554 16.008C128.288 15.6453 128.085 15.2347 127.946 14.776C127.818 14.3173 127.744 13.832 127.722 13.32C127.712 13.1493 127.706 12.9893 127.706 12.84C127.706 12.6907 127.712 12.5307 127.722 12.36C127.744 11.8587 127.818 11.3787 127.946 10.92C128.085 10.4613 128.288 10.0507 128.554 9.688C128.832 9.32533 129.184 9.04267 129.61 8.84C130.037 8.62667 130.544 8.52 131.13 8.52C131.76 8.52 132.282 8.632 132.698 8.856C133.114 9.08 133.456 9.35733 133.722 9.688V6.008C133.722 5.90133 133.754 5.816 133.818 5.752C133.893 5.67733 133.984 5.64 134.09 5.64H134.858C134.965 5.64 135.05 5.67733 135.114 5.752C135.189 5.816 135.226 5.90133 135.226 6.008V16.632C135.226 16.7387 135.189 16.8293 135.114 16.904C135.05 16.968 134.965 17 134.858 17H134.138C134.021 17 133.93 16.968 133.866 16.904C133.802 16.8293 133.77 16.7387 133.77 16.632V15.96C133.504 16.3013 133.157 16.5893 132.73 16.824C132.304 17.048 131.77 17.16 131.13 17.16ZM131.466 15.864C132 15.864 132.426 15.7413 132.746 15.496C133.066 15.2507 133.306 14.9413 133.466 14.568C133.626 14.184 133.712 13.7947 133.722 13.4C133.733 13.2293 133.738 13.0267 133.738 12.792C133.738 12.5467 133.733 12.3387 133.722 12.168C133.712 11.7947 133.621 11.4267 133.45 11.064C133.29 10.7013 133.045 10.4027 132.714 10.168C132.394 9.93333 131.978 9.816 131.466 9.816C130.922 9.816 130.49 9.93867 130.17 10.184C129.85 10.4187 129.621 10.7333 129.482 11.128C129.344 11.512 129.264 11.928 129.242 12.376C129.232 12.6853 129.232 12.9947 129.242 13.304C129.264 13.752 129.344 14.1733 129.482 14.568C129.621 14.952 129.85 15.2667 130.17 15.512C130.49 15.7467 130.922 15.864 131.466 15.864ZM141.896 17C141.789 17 141.698 16.968 141.624 16.904C141.56 16.8293 141.528 16.7387 141.528 16.632V9.064C141.528 8.95733 141.56 8.86667 141.624 8.792C141.698 8.71733 141.789 8.68 141.896 8.68H142.632C142.738 8.68 142.829 8.71733 142.904 8.792C142.978 8.86667 143.016 8.95733 143.016 9.064V9.768C143.229 9.40533 143.522 9.13333 143.896 8.952C144.269 8.77067 144.717 8.68 145.24 8.68H145.88C145.986 8.68 146.072 8.71733 146.136 8.792C146.2 8.856 146.232 8.94133 146.232 9.048V9.704C146.232 9.81067 146.2 9.896 146.136 9.96C146.072 10.024 145.986 10.056 145.88 10.056H144.92C144.344 10.056 143.89 10.2267 143.56 10.568C143.229 10.8987 143.064 11.352 143.064 11.928V16.632C143.064 16.7387 143.026 16.8293 142.952 16.904C142.877 16.968 142.786 17 142.68 17H141.896ZM150.762 17.16C149.663 17.16 148.788 16.824 148.138 16.152C147.487 15.4693 147.13 14.5413 147.066 13.368C147.055 13.2293 147.05 13.0533 147.05 12.84C147.05 12.616 147.055 12.4347 147.066 12.296C147.108 11.5387 147.284 10.8773 147.594 10.312C147.903 9.736 148.324 9.29333 148.858 8.984C149.402 8.67467 150.036 8.52 150.762 8.52C151.572 8.52 152.25 8.69067 152.794 9.032C153.348 9.37333 153.77 9.85867 154.058 10.488C154.346 11.1173 154.49 11.8533 154.49 12.696V12.968C154.49 13.0853 154.452 13.176 154.378 13.24C154.314 13.304 154.228 13.336 154.122 13.336H148.586C148.586 13.3467 148.586 13.368 148.586 13.4C148.586 13.432 148.586 13.4587 148.586 13.48C148.607 13.9173 148.703 14.328 148.874 14.712C149.044 15.0853 149.29 15.3893 149.61 15.624C149.93 15.8587 150.314 15.976 150.762 15.976C151.146 15.976 151.466 15.9173 151.722 15.8C151.978 15.6827 152.186 15.5547 152.346 15.416C152.506 15.2667 152.612 15.1547 152.666 15.08C152.762 14.9413 152.836 14.8613 152.89 14.84C152.943 14.808 153.028 14.792 153.146 14.792H153.914C154.02 14.792 154.106 14.824 154.17 14.888C154.244 14.9413 154.276 15.0213 154.266 15.128C154.255 15.288 154.17 15.4853 154.01 15.72C153.85 15.944 153.62 16.168 153.322 16.392C153.023 16.616 152.66 16.8027 152.234 16.952C151.807 17.0907 151.316 17.16 150.762 17.16ZM148.586 12.232H152.97V12.184C152.97 11.704 152.879 11.2773 152.698 10.904C152.527 10.5307 152.276 10.2373 151.946 10.024C151.615 9.8 151.22 9.688 150.762 9.688C150.303 9.688 149.908 9.8 149.578 10.024C149.258 10.2373 149.012 10.5307 148.842 10.904C148.671 11.2773 148.586 11.704 148.586 12.184V12.232ZM162.419 20.04C162.301 20.04 162.211 20.0027 162.147 19.928C162.083 19.864 162.051 19.7787 162.051 19.672V15.96C161.784 16.3013 161.437 16.5893 161.011 16.824C160.595 17.048 160.077 17.16 159.459 17.16C158.872 17.16 158.365 17.0587 157.939 16.856C157.512 16.6427 157.16 16.3653 156.883 16.024C156.616 15.672 156.413 15.272 156.275 14.824C156.147 14.3653 156.072 13.8853 156.051 13.384C156.04 13.2133 156.035 13.032 156.035 12.84C156.035 12.648 156.04 12.4667 156.051 12.296C156.072 11.784 156.147 11.304 156.275 10.856C156.413 10.408 156.616 10.008 156.883 9.656C157.16 9.304 157.512 9.02667 157.939 8.824C158.365 8.62133 158.872 8.52 159.459 8.52C160.099 8.52 160.632 8.63733 161.059 8.872C161.485 9.10667 161.827 9.4 162.083 9.752V9.048C162.083 8.94133 162.115 8.856 162.179 8.792C162.253 8.71733 162.344 8.68 162.451 8.68H163.187C163.293 8.68 163.379 8.71733 163.443 8.792C163.517 8.856 163.555 8.94133 163.555 9.048V19.672C163.555 19.7787 163.517 19.864 163.443 19.928C163.379 20.0027 163.293 20.04 163.187 20.04H162.419ZM159.795 15.864C160.307 15.864 160.723 15.7467 161.043 15.512C161.373 15.2773 161.619 14.9787 161.779 14.616C161.949 14.2533 162.04 13.8853 162.051 13.512C162.061 13.3307 162.067 13.1227 162.067 12.888C162.067 12.6533 162.061 12.4507 162.051 12.28C162.04 11.8853 161.955 11.5013 161.795 11.128C161.635 10.744 161.389 10.4293 161.059 10.184C160.739 9.93867 160.317 9.816 159.795 9.816C159.251 9.816 158.819 9.93867 158.499 10.184C158.179 10.4187 157.949 10.7333 157.811 11.128C157.672 11.512 157.592 11.928 157.571 12.376C157.56 12.6853 157.56 12.9947 157.571 13.304C157.592 13.752 157.672 14.1733 157.811 14.568C157.949 14.952 158.179 15.2667 158.499 15.512C158.819 15.7467 159.251 15.864 159.795 15.864ZM169.038 17.16C168.355 17.16 167.774 17.0107 167.294 16.712C166.825 16.4027 166.467 15.976 166.222 15.432C165.977 14.888 165.854 14.264 165.854 13.56V9.048C165.854 8.94133 165.886 8.856 165.95 8.792C166.025 8.71733 166.115 8.68 166.222 8.68H167.022C167.129 8.68 167.214 8.71733 167.278 8.792C167.353 8.856 167.39 8.94133 167.39 9.048V13.48C167.39 15.0693 168.083 15.864 169.47 15.864C170.131 15.864 170.659 15.656 171.054 15.24C171.459 14.8133 171.662 14.2267 171.662 13.48V9.048C171.662 8.94133 171.694 8.856 171.758 8.792C171.833 8.71733 171.923 8.68 172.03 8.68H172.814C172.931 8.68 173.022 8.71733 173.086 8.792C173.15 8.856 173.182 8.94133 173.182 9.048V16.632C173.182 16.7387 173.15 16.8293 173.086 16.904C173.022 16.968 172.931 17 172.814 17H172.078C171.971 17 171.881 16.968 171.806 16.904C171.742 16.8293 171.71 16.7387 171.71 16.632V15.928C171.422 16.3013 171.07 16.6 170.654 16.824C170.249 17.048 169.71 17.16 169.038 17.16ZM175.927 17C175.82 17 175.73 16.968 175.655 16.904C175.591 16.8293 175.559 16.7387 175.559 16.632V9.048C175.559 8.94133 175.591 8.856 175.655 8.792C175.73 8.71733 175.82 8.68 175.927 8.68H176.695C176.802 8.68 176.887 8.71733 176.951 8.792C177.015 8.856 177.047 8.94133 177.047 9.048V16.632C177.047 16.7387 177.015 16.8293 176.951 16.904C176.887 16.968 176.802 17 176.695 17H175.927ZM175.799 7.128C175.692 7.128 175.602 7.096 175.527 7.032C175.463 6.95733 175.431 6.86667 175.431 6.76V5.896C175.431 5.78933 175.463 5.704 175.527 5.64C175.602 5.56533 175.692 5.528 175.799 5.528H176.807C176.914 5.528 176.999 5.56533 177.063 5.64C177.138 5.704 177.175 5.78933 177.175 5.896V6.76C177.175 6.86667 177.138 6.95733 177.063 7.032C176.999 7.096 176.914 7.128 176.807 7.128H175.799ZM179.958 17C179.852 17 179.761 16.968 179.686 16.904C179.622 16.8293 179.59 16.7387 179.59 16.632V9.064C179.59 8.95733 179.622 8.86667 179.686 8.792C179.761 8.71733 179.852 8.68 179.958 8.68H180.694C180.801 8.68 180.892 8.71733 180.966 8.792C181.041 8.86667 181.078 8.95733 181.078 9.064V9.768C181.292 9.40533 181.585 9.13333 181.958 8.952C182.332 8.77067 182.78 8.68 183.302 8.68H183.942C184.049 8.68 184.134 8.71733 184.198 8.792C184.262 8.856 184.294 8.94133 184.294 9.048V9.704C184.294 9.81067 184.262 9.896 184.198 9.96C184.134 10.024 184.049 10.056 183.942 10.056H182.982C182.406 10.056 181.953 10.2267 181.622 10.568C181.292 10.8987 181.126 11.352 181.126 11.928V16.632C181.126 16.7387 181.089 16.8293 181.014 16.904C180.94 16.968 180.849 17 180.742 17H179.958ZM188.824 17.16C187.725 17.16 186.851 16.824 186.2 16.152C185.549 15.4693 185.192 14.5413 185.128 13.368C185.117 13.2293 185.112 13.0533 185.112 12.84C185.112 12.616 185.117 12.4347 185.128 12.296C185.171 11.5387 185.347 10.8773 185.656 10.312C185.965 9.736 186.387 9.29333 186.92 8.984C187.464 8.67467 188.099 8.52 188.824 8.52C189.635 8.52 190.312 8.69067 190.856 9.032C191.411 9.37333 191.832 9.85867 192.12 10.488C192.408 11.1173 192.552 11.8533 192.552 12.696V12.968C192.552 13.0853 192.515 13.176 192.44 13.24C192.376 13.304 192.291 13.336 192.184 13.336H186.648C186.648 13.3467 186.648 13.368 186.648 13.4C186.648 13.432 186.648 13.4587 186.648 13.48C186.669 13.9173 186.765 14.328 186.936 14.712C187.107 15.0853 187.352 15.3893 187.672 15.624C187.992 15.8587 188.376 15.976 188.824 15.976C189.208 15.976 189.528 15.9173 189.784 15.8C190.04 15.6827 190.248 15.5547 190.408 15.416C190.568 15.2667 190.675 15.1547 190.728 15.08C190.824 14.9413 190.899 14.8613 190.952 14.84C191.005 14.808 191.091 14.792 191.208 14.792H191.976C192.083 14.792 192.168 14.824 192.232 14.888C192.307 14.9413 192.339 15.0213 192.328 15.128C192.317 15.288 192.232 15.4853 192.072 15.72C191.912 15.944 191.683 16.168 191.384 16.392C191.085 16.616 190.723 16.8027 190.296 16.952C189.869 17.0907 189.379 17.16 188.824 17.16ZM186.648 12.232H191.032V12.184C191.032 11.704 190.941 11.2773 190.76 10.904C190.589 10.5307 190.339 10.2373 190.008 10.024C189.677 9.8 189.283 9.688 188.824 9.688C188.365 9.688 187.971 9.8 187.64 10.024C187.32 10.2373 187.075 10.5307 186.904 10.904C186.733 11.2773 186.648 11.704 186.648 12.184V12.232ZM197.505 17.16C196.919 17.16 196.412 17.0587 195.985 16.856C195.559 16.6427 195.207 16.36 194.929 16.008C194.663 15.6453 194.46 15.2347 194.321 14.776C194.193 14.3173 194.119 13.832 194.097 13.32C194.087 13.1493 194.081 12.9893 194.081 12.84C194.081 12.6907 194.087 12.5307 194.097 12.36C194.119 11.8587 194.193 11.3787 194.321 10.92C194.46 10.4613 194.663 10.0507 194.929 9.688C195.207 9.32533 195.559 9.04267 195.985 8.84C196.412 8.62667 196.919 8.52 197.505 8.52C198.135 8.52 198.657 8.632 199.073 8.856C199.489 9.08 199.831 9.35733 200.097 9.688V6.008C200.097 5.90133 200.129 5.816 200.193 5.752C200.268 5.67733 200.359 5.64 200.465 5.64H201.233C201.34 5.64 201.425 5.67733 201.489 5.752C201.564 5.816 201.601 5.90133 201.601 6.008V16.632C201.601 16.7387 201.564 16.8293 201.489 16.904C201.425 16.968 201.34 17 201.233 17H200.513C200.396 17 200.305 16.968 200.241 16.904C200.177 16.8293 200.145 16.7387 200.145 16.632V15.96C199.879 16.3013 199.532 16.5893 199.105 16.824C198.679 17.048 198.145 17.16 197.505 17.16ZM197.841 15.864C198.375 15.864 198.801 15.7413 199.121 15.496C199.441 15.2507 199.681 14.9413 199.841 14.568C200.001 14.184 200.087 13.7947 200.097 13.4C200.108 13.2293 200.113 13.0267 200.113 12.792C200.113 12.5467 200.108 12.3387 200.097 12.168C200.087 11.7947 199.996 11.4267 199.825 11.064C199.665 10.7013 199.42 10.4027 199.089 10.168C198.769 9.93333 198.353 9.816 197.841 9.816C197.297 9.816 196.865 9.93867 196.545 10.184C196.225 10.4187 195.996 10.7333 195.857 11.128C195.719 11.512 195.639 11.928 195.617 12.376C195.607 12.6853 195.607 12.9947 195.617 13.304C195.639 13.752 195.719 14.1733 195.857 14.568C195.996 14.952 196.225 15.2667 196.545 15.512C196.865 15.7467 197.297 15.864 197.841 15.864Z" fill="#7D7D7D"/>
<g clip-path="url(#clip0_5_48)">
<path d="M3 3L21 21" stroke="#FFB72D" stroke-width="1.5" stroke-linecap="round" stroke-linejoin="round"/>
<path d="M9 5H18C18.7956 5 19.5587 5.31607 20.1213 5.87868C20.6839 6.44129 21 7.20435 21 8V16C21.0003 16.2947 20.9572 16.5879 20.872 16.87" stroke="#FFB72D" stroke-width="1.5" stroke-linecap="round" stroke-linejoin="round"/>
<path d="M18.87 18.872C18.5879 18.9572 18.2947 19.0003 18 19H6C5.20435 19 4.44129 18.6839 3.87868 18.1213C3.31607 17.5587 3 16.7957 3 16V8C3 6.648 3.894 5.505 5.124 5.13" stroke="#FFB72D" stroke-width="1.5" stroke-linecap="round" stroke-linejoin="round"/>
<path d="M3 11H11" stroke="#FFB72D" stroke-width="1.5" stroke-linecap="round" stroke-linejoin="round"/>
<path d="M15 11H21" stroke="#FFB72D" stroke-width="1.5" stroke-linecap="round" stroke-linejoin="round"/>
<path d="M7 15H7.01" stroke="#FFB72D" stroke-width="1.5" stroke-linecap="round" stroke-linejoin="round"/>
<path d="M11 15H13" stroke="#FFB72D" stroke-width="1.5" stroke-linecap="round" stroke-linejoin="round"/>
</g>
<defs>
<clipPath id="clip0_5_48">
<rect width="24" height="24" fill="white"/>
</clipPath>
</defs>
</svg>
