<svg width="160" height="24" viewBox="0 0 160 24" fill="none" xmlns="http://www.w3.org/2000/svg">
<path d="M30.0725 17C29.9552 17 29.8645 16.968 29.8005 16.904C29.7365 16.8293 29.7045 16.7387 29.7045 16.632V6.168C29.7045 6.06133 29.7365 5.976 29.8005 5.912C29.8645 5.83733 29.9552 5.8 30.0725 5.8H30.9205C31.0272 5.8 31.1125 5.83733 31.1765 5.912C31.2405 5.976 31.2725 6.06133 31.2725 6.168V15.608H36.6005C36.7178 15.608 36.8085 15.6453 36.8725 15.72C36.9365 15.784 36.9685 15.8747 36.9685 15.992V16.632C36.9685 16.7387 36.9365 16.8293 36.8725 16.904C36.8085 16.968 36.7178 17 36.6005 17H30.0725ZM38.8801 17C38.7735 17 38.6828 16.968 38.6081 16.904C38.5441 16.8293 38.5121 16.7387 38.5121 16.632V9.048C38.5121 8.94133 38.5441 8.856 38.6081 8.792C38.6828 8.71733 38.7735 8.68 38.8801 8.68H39.6481C39.7548 8.68 39.8401 8.71733 39.9041 8.792C39.9681 8.856 40.0001 8.94133 40.0001 9.048V16.632C40.0001 16.7387 39.9681 16.8293 39.9041 16.904C39.8401 16.968 39.7548 17 39.6481 17H38.8801ZM38.7521 7.128C38.6455 7.128 38.5548 7.096 38.4801 7.032C38.4161 6.95733 38.3841 6.86667 38.3841 6.76V5.896C38.3841 5.78933 38.4161 5.704 38.4801 5.64C38.5548 5.56533 38.6455 5.528 38.7521 5.528H39.7601C39.8668 5.528 39.9521 5.56533 40.0161 5.64C40.0908 5.704 40.1281 5.78933 40.1281 5.896V6.76C40.1281 6.86667 40.0908 6.95733 40.0161 7.032C39.9521 7.096 39.8668 7.128 39.7601 7.128H38.7521ZM43.5871 17C43.4805 17 43.3898 16.968 43.3151 16.904C43.2511 16.8293 43.2191 16.7387 43.2191 16.632V9.96H41.8591C41.7525 9.96 41.6618 9.928 41.5871 9.864C41.5231 9.78933 41.4911 9.69867 41.4911 9.592V9.048C41.4911 8.94133 41.5231 8.856 41.5871 8.792C41.6618 8.71733 41.7525 8.68 41.8591 8.68H43.2191V7.88C43.2191 7.336 43.3098 6.86133 43.4911 6.456C43.6725 6.04 43.9605 5.72 44.3551 5.496C44.7605 5.272 45.2991 5.16 45.9711 5.16H46.9311C47.0378 5.16 47.1231 5.19733 47.1871 5.272C47.2511 5.336 47.2831 5.42133 47.2831 5.528V6.072C47.2831 6.17867 47.2511 6.26933 47.1871 6.344C47.1231 6.408 47.0378 6.44 46.9311 6.44H46.0031C45.5018 6.44 45.1605 6.57333 44.9791 6.84C44.7978 7.096 44.7071 7.46933 44.7071 7.96V8.68H46.7711C46.8778 8.68 46.9631 8.71733 47.0271 8.792C47.0911 8.856 47.1231 8.94133 47.1231 9.048V9.592C47.1231 9.69867 47.0911 9.78933 47.0271 9.864C46.9631 9.928 46.8778 9.96 46.7711 9.96H44.7071V16.632C44.7071 16.7387 44.6698 16.8293 44.5951 16.904C44.5311 16.968 44.4458 17 44.3391 17H43.5871ZM51.6991 17.16C50.6005 17.16 49.7258 16.824 49.0751 16.152C48.4245 15.4693 48.0671 14.5413 48.0031 13.368C47.9925 13.2293 47.9871 13.0533 47.9871 12.84C47.9871 12.616 47.9925 12.4347 48.0031 12.296C48.0458 11.5387 48.2218 10.8773 48.5311 10.312C48.8405 9.736 49.2618 9.29333 49.7951 8.984C50.3391 8.67467 50.9738 8.52 51.6991 8.52C52.5098 8.52 53.1871 8.69067 53.7311 9.032C54.2858 9.37333 54.7071 9.85867 54.9951 10.488C55.2831 11.1173 55.4271 11.8533 55.4271 12.696V12.968C55.4271 13.0853 55.3898 13.176 55.3151 13.24C55.2511 13.304 55.1658 13.336 55.0591 13.336H49.5231C49.5231 13.3467 49.5231 13.368 49.5231 13.4C49.5231 13.432 49.5231 13.4587 49.5231 13.48C49.5445 13.9173 49.6405 14.328 49.8111 14.712C49.9818 15.0853 50.2271 15.3893 50.5471 15.624C50.8671 15.8587 51.2511 15.976 51.6991 15.976C52.0831 15.976 52.4031 15.9173 52.6591 15.8C52.9151 15.6827 53.1231 15.5547 53.2831 15.416C53.4431 15.2667 53.5498 15.1547 53.6031 15.08C53.6991 14.9413 53.7738 14.8613 53.8271 14.84C53.8805 14.808 53.9658 14.792 54.0831 14.792H54.8511C54.9578 14.792 55.0431 14.824 55.1071 14.888C55.1818 14.9413 55.2138 15.0213 55.2031 15.128C55.1925 15.288 55.1071 15.4853 54.9471 15.72C54.7871 15.944 54.5578 16.168 54.2591 16.392C53.9605 16.616 53.5978 16.8027 53.1711 16.952C52.7445 17.0907 52.2538 17.16 51.6991 17.16ZM49.5231 12.232H53.9071V12.184C53.9071 11.704 53.8165 11.2773 53.6351 10.904C53.4645 10.5307 53.2138 10.2373 52.8831 10.024C52.5525 9.8 52.1578 9.688 51.6991 9.688C51.2405 9.688 50.8458 9.8 50.5151 10.024C50.1951 10.2373 49.9498 10.5307 49.7791 10.904C49.6085 11.2773 49.5231 11.704 49.5231 12.184V12.232ZM60.5414 17C59.944 17 59.4587 16.888 59.0854 16.664C58.712 16.4293 58.44 16.104 58.2694 15.688C58.0987 15.2613 58.0134 14.76 58.0134 14.184V9.96H56.7654C56.6587 9.96 56.568 9.928 56.4934 9.864C56.4294 9.78933 56.3974 9.69867 56.3974 9.592V9.048C56.3974 8.94133 56.4294 8.856 56.4934 8.792C56.568 8.71733 56.6587 8.68 56.7654 8.68H58.0134V6.008C58.0134 5.90133 58.0454 5.816 58.1094 5.752C58.184 5.67733 58.2747 5.64 58.3814 5.64H59.1334C59.24 5.64 59.3254 5.67733 59.3894 5.752C59.464 5.816 59.5014 5.90133 59.5014 6.008V8.68H61.4854C61.592 8.68 61.6774 8.71733 61.7414 8.792C61.816 8.856 61.8534 8.94133 61.8534 9.048V9.592C61.8534 9.69867 61.816 9.78933 61.7414 9.864C61.6774 9.928 61.592 9.96 61.4854 9.96H59.5014V14.072C59.5014 14.5733 59.5867 14.968 59.7574 15.256C59.928 15.544 60.232 15.688 60.6694 15.688H61.6454C61.752 15.688 61.8374 15.7253 61.9014 15.8C61.976 15.864 62.0134 15.9493 62.0134 16.056V16.632C62.0134 16.7387 61.976 16.8293 61.9014 16.904C61.8374 16.968 61.752 17 61.6454 17H60.5414ZM63.9114 17C63.8047 17 63.714 16.968 63.6394 16.904C63.5754 16.8293 63.5434 16.7387 63.5434 16.632V9.048C63.5434 8.94133 63.5754 8.856 63.6394 8.792C63.714 8.71733 63.8047 8.68 63.9114 8.68H64.6794C64.786 8.68 64.8714 8.71733 64.9354 8.792C64.9994 8.856 65.0314 8.94133 65.0314 9.048V16.632C65.0314 16.7387 64.9994 16.8293 64.9354 16.904C64.8714 16.968 64.786 17 64.6794 17H63.9114ZM63.7834 7.128C63.6767 7.128 63.586 7.096 63.5114 7.032C63.4474 6.95733 63.4154 6.86667 63.4154 6.76V5.896C63.4154 5.78933 63.4474 5.704 63.5114 5.64C63.586 5.56533 63.6767 5.528 63.7834 5.528H64.7914C64.898 5.528 64.9834 5.56533 65.0474 5.64C65.122 5.704 65.1594 5.78933 65.1594 5.896V6.76C65.1594 6.86667 65.122 6.95733 65.0474 7.032C64.9834 7.096 64.898 7.128 64.7914 7.128H63.7834ZM67.9426 17C67.836 17 67.7453 16.968 67.6706 16.904C67.6066 16.8293 67.5746 16.7387 67.5746 16.632V9.048C67.5746 8.94133 67.6066 8.856 67.6706 8.792C67.7453 8.71733 67.836 8.68 67.9426 8.68H68.6626C68.7693 8.68 68.8546 8.71733 68.9186 8.792C68.9933 8.856 69.0306 8.94133 69.0306 9.048V9.608C69.276 9.27733 69.5853 9.016 69.9586 8.824C70.332 8.62133 70.78 8.52 71.3026 8.52C72.508 8.50933 73.3613 9 73.8626 9.992C74.108 9.544 74.4653 9.18667 74.9346 8.92C75.404 8.65333 75.9373 8.52 76.5346 8.52C77.0893 8.52 77.5906 8.648 78.0386 8.904C78.4973 9.16 78.8546 9.54933 79.1106 10.072C79.3773 10.584 79.5106 11.2293 79.5106 12.008V16.632C79.5106 16.7387 79.4733 16.8293 79.3986 16.904C79.3346 16.968 79.2493 17 79.1426 17H78.3906C78.284 17 78.1933 16.968 78.1186 16.904C78.0546 16.8293 78.0226 16.7387 78.0226 16.632V12.152C78.0226 11.5547 77.9373 11.0853 77.7666 10.744C77.596 10.4027 77.3666 10.1627 77.0786 10.024C76.7906 9.88533 76.476 9.816 76.1346 9.816C75.8573 9.816 75.5746 9.88533 75.2866 10.024C74.9986 10.1627 74.7586 10.4027 74.5666 10.744C74.3853 11.0853 74.2946 11.5547 74.2946 12.152V16.632C74.2946 16.7387 74.2573 16.8293 74.1826 16.904C74.1186 16.968 74.0333 17 73.9266 17H73.1746C73.068 17 72.9773 16.968 72.9026 16.904C72.8386 16.8293 72.8066 16.7387 72.8066 16.632V12.152C72.8066 11.5547 72.716 11.0853 72.5346 10.744C72.3533 10.4027 72.1186 10.1627 71.8306 10.024C71.5426 9.88533 71.2386 9.816 70.9186 9.816C70.6413 9.816 70.3586 9.88533 70.0706 10.024C69.7826 10.1627 69.5426 10.4027 69.3506 10.744C69.1693 11.0853 69.0786 11.5493 69.0786 12.136V16.632C69.0786 16.7387 69.0413 16.8293 68.9666 16.904C68.9026 16.968 68.8173 17 68.7106 17H67.9426ZM85.1054 17.16C84.0067 17.16 83.132 16.824 82.4814 16.152C81.8307 15.4693 81.4734 14.5413 81.4094 13.368C81.3987 13.2293 81.3934 13.0533 81.3934 12.84C81.3934 12.616 81.3987 12.4347 81.4094 12.296C81.452 11.5387 81.628 10.8773 81.9374 10.312C82.2467 9.736 82.668 9.29333 83.2014 8.984C83.7454 8.67467 84.38 8.52 85.1054 8.52C85.916 8.52 86.5934 8.69067 87.1374 9.032C87.692 9.37333 88.1134 9.85867 88.4014 10.488C88.6894 11.1173 88.8334 11.8533 88.8334 12.696V12.968C88.8334 13.0853 88.796 13.176 88.7214 13.24C88.6574 13.304 88.572 13.336 88.4654 13.336H82.9294C82.9294 13.3467 82.9294 13.368 82.9294 13.4C82.9294 13.432 82.9294 13.4587 82.9294 13.48C82.9507 13.9173 83.0467 14.328 83.2174 14.712C83.388 15.0853 83.6334 15.3893 83.9534 15.624C84.2734 15.8587 84.6574 15.976 85.1054 15.976C85.4894 15.976 85.8094 15.9173 86.0654 15.8C86.3214 15.6827 86.5294 15.5547 86.6894 15.416C86.8494 15.2667 86.956 15.1547 87.0094 15.08C87.1054 14.9413 87.18 14.8613 87.2334 14.84C87.2867 14.808 87.372 14.792 87.4894 14.792H88.2574C88.364 14.792 88.4494 14.824 88.5134 14.888C88.588 14.9413 88.62 15.0213 88.6094 15.128C88.5987 15.288 88.5134 15.4853 88.3534 15.72C88.1934 15.944 87.964 16.168 87.6654 16.392C87.3667 16.616 87.004 16.8027 86.5774 16.952C86.1507 17.0907 85.66 17.16 85.1054 17.16ZM82.9294 12.232H87.3134V12.184C87.3134 11.704 87.2227 11.2773 87.0414 10.904C86.8707 10.5307 86.62 10.2373 86.2894 10.024C85.9587 9.8 85.564 9.688 85.1054 9.688C84.6467 9.688 84.252 9.8 83.9214 10.024C83.6014 10.2373 83.356 10.5307 83.1854 10.904C83.0147 11.2773 82.9294 11.704 82.9294 12.184V12.232ZM97.5484 17.16C96.951 17.16 96.439 17.0853 96.0124 16.936C95.5857 16.7867 95.239 16.6053 94.9724 16.392C94.7057 16.1787 94.503 15.9653 94.3644 15.752C94.2364 15.5387 94.167 15.368 94.1564 15.24C94.1457 15.1227 94.183 15.032 94.2684 14.968C94.3537 14.904 94.439 14.872 94.5244 14.872H95.2284C95.2924 14.872 95.3404 14.8827 95.3724 14.904C95.415 14.9147 95.4684 14.9573 95.5324 15.032C95.671 15.1813 95.8257 15.3307 95.9964 15.48C96.167 15.6293 96.375 15.752 96.6204 15.848C96.8764 15.944 97.191 15.992 97.5644 15.992C98.1084 15.992 98.5564 15.8907 98.9084 15.688C99.2604 15.4747 99.4364 15.1653 99.4364 14.76C99.4364 14.4933 99.3617 14.28 99.2124 14.12C99.0737 13.96 98.8177 13.816 98.4444 13.688C98.0817 13.56 97.5804 13.4267 96.9404 13.288C96.3004 13.1387 95.7937 12.9573 95.4204 12.744C95.047 12.52 94.7804 12.2587 94.6204 11.96C94.4604 11.6507 94.3804 11.304 94.3804 10.92C94.3804 10.5253 94.4977 10.1467 94.7324 9.784C94.967 9.41067 95.3084 9.10667 95.7564 8.872C96.215 8.63733 96.7857 8.52 97.4684 8.52C98.023 8.52 98.4977 8.58933 98.8924 8.728C99.287 8.86667 99.6124 9.04267 99.8684 9.256C100.124 9.45867 100.316 9.66133 100.444 9.864C100.572 10.0667 100.642 10.2373 100.652 10.376C100.663 10.4827 100.631 10.5733 100.556 10.648C100.482 10.712 100.396 10.744 100.3 10.744H99.6284C99.5537 10.744 99.4897 10.728 99.4364 10.696C99.3937 10.664 99.351 10.6267 99.3084 10.584C99.2017 10.4453 99.0737 10.3067 98.9244 10.168C98.7857 10.0293 98.599 9.91733 98.3644 9.832C98.1404 9.736 97.8417 9.688 97.4684 9.688C96.935 9.688 96.535 9.8 96.2684 10.024C96.0017 10.248 95.8684 10.5307 95.8684 10.872C95.8684 11.0747 95.927 11.256 96.0444 11.416C96.1617 11.576 96.3857 11.72 96.7164 11.848C97.047 11.976 97.5377 12.1147 98.1884 12.264C98.8924 12.4027 99.447 12.5893 99.8524 12.824C100.258 13.0587 100.546 13.3307 100.716 13.64C100.887 13.9493 100.972 14.3067 100.972 14.712C100.972 15.16 100.839 15.5707 100.572 15.944C100.316 16.3173 99.9324 16.616 99.4204 16.84C98.919 17.0533 98.295 17.16 97.5484 17.16ZM105.929 17.16C105.246 17.16 104.665 17.0107 104.185 16.712C103.715 16.4027 103.358 15.976 103.113 15.432C102.867 14.888 102.745 14.264 102.745 13.56V9.048C102.745 8.94133 102.777 8.856 102.841 8.792C102.915 8.71733 103.006 8.68 103.113 8.68H103.913C104.019 8.68 104.105 8.71733 104.169 8.792C104.243 8.856 104.281 8.94133 104.281 9.048V13.48C104.281 15.0693 104.974 15.864 106.361 15.864C107.022 15.864 107.55 15.656 107.945 15.24C108.35 14.8133 108.553 14.2267 108.553 13.48V9.048C108.553 8.94133 108.585 8.856 108.649 8.792C108.723 8.71733 108.814 8.68 108.921 8.68H109.705C109.822 8.68 109.913 8.71733 109.977 8.792C110.041 8.856 110.073 8.94133 110.073 9.048V16.632C110.073 16.7387 110.041 16.8293 109.977 16.904C109.913 16.968 109.822 17 109.705 17H108.969C108.862 17 108.771 16.968 108.697 16.904C108.633 16.8293 108.601 16.7387 108.601 16.632V15.928C108.313 16.3013 107.961 16.6 107.545 16.824C107.139 17.048 106.601 17.16 105.929 17.16ZM112.834 20.04C112.727 20.04 112.636 20.0027 112.562 19.928C112.498 19.864 112.466 19.7787 112.466 19.672V9.048C112.466 8.94133 112.498 8.856 112.562 8.792C112.636 8.71733 112.727 8.68 112.834 8.68H113.57C113.676 8.68 113.762 8.71733 113.826 8.792C113.9 8.856 113.938 8.94133 113.938 9.048V9.752C114.194 9.4 114.535 9.10667 114.962 8.872C115.388 8.63733 115.922 8.52 116.562 8.52C117.159 8.52 117.666 8.62133 118.082 8.824C118.508 9.02667 118.855 9.304 119.122 9.656C119.399 10.008 119.607 10.408 119.746 10.856C119.884 11.304 119.959 11.784 119.97 12.296C119.98 12.4667 119.986 12.648 119.986 12.84C119.986 13.032 119.98 13.2133 119.97 13.384C119.959 13.8853 119.884 14.3653 119.746 14.824C119.607 15.272 119.399 15.672 119.122 16.024C118.855 16.3653 118.508 16.6427 118.082 16.856C117.666 17.0587 117.159 17.16 116.562 17.16C115.943 17.16 115.42 17.048 114.994 16.824C114.578 16.5893 114.236 16.3013 113.97 15.96V19.672C113.97 19.7787 113.938 19.864 113.874 19.928C113.81 20.0027 113.719 20.04 113.602 20.04H112.834ZM116.226 15.864C116.78 15.864 117.212 15.7467 117.522 15.512C117.842 15.2667 118.071 14.952 118.21 14.568C118.348 14.1733 118.428 13.752 118.45 13.304C118.46 12.9947 118.46 12.6853 118.45 12.376C118.428 11.928 118.348 11.512 118.21 11.128C118.071 10.7333 117.842 10.4187 117.522 10.184C117.212 9.93867 116.78 9.816 116.226 9.816C115.703 9.816 115.276 9.93867 114.946 10.184C114.626 10.4293 114.386 10.744 114.226 11.128C114.076 11.5013 113.991 11.8853 113.97 12.28C113.959 12.4507 113.954 12.6533 113.954 12.888C113.954 13.1227 113.959 13.3307 113.97 13.512C113.98 13.8853 114.066 14.2533 114.226 14.616C114.396 14.9787 114.647 15.2773 114.978 15.512C115.308 15.7467 115.724 15.864 116.226 15.864ZM122.365 20.04C122.258 20.04 122.168 20.0027 122.093 19.928C122.029 19.864 121.997 19.7787 121.997 19.672V9.048C121.997 8.94133 122.029 8.856 122.093 8.792C122.168 8.71733 122.258 8.68 122.365 8.68H123.101C123.208 8.68 123.293 8.71733 123.357 8.792C123.432 8.856 123.469 8.94133 123.469 9.048V9.752C123.725 9.4 124.066 9.10667 124.493 8.872C124.92 8.63733 125.453 8.52 126.093 8.52C126.69 8.52 127.197 8.62133 127.613 8.824C128.04 9.02667 128.386 9.304 128.653 9.656C128.93 10.008 129.138 10.408 129.277 10.856C129.416 11.304 129.49 11.784 129.501 12.296C129.512 12.4667 129.517 12.648 129.517 12.84C129.517 13.032 129.512 13.2133 129.501 13.384C129.49 13.8853 129.416 14.3653 129.277 14.824C129.138 15.272 128.93 15.672 128.653 16.024C128.386 16.3653 128.04 16.6427 127.613 16.856C127.197 17.0587 126.69 17.16 126.093 17.16C125.474 17.16 124.952 17.048 124.525 16.824C124.109 16.5893 123.768 16.3013 123.501 15.96V19.672C123.501 19.7787 123.469 19.864 123.405 19.928C123.341 20.0027 123.25 20.04 123.133 20.04H122.365ZM125.757 15.864C126.312 15.864 126.744 15.7467 127.053 15.512C127.373 15.2667 127.602 14.952 127.741 14.568C127.88 14.1733 127.96 13.752 127.981 13.304C127.992 12.9947 127.992 12.6853 127.981 12.376C127.96 11.928 127.88 11.512 127.741 11.128C127.602 10.7333 127.373 10.4187 127.053 10.184C126.744 9.93867 126.312 9.816 125.757 9.816C125.234 9.816 124.808 9.93867 124.477 10.184C124.157 10.4293 123.917 10.744 123.757 11.128C123.608 11.5013 123.522 11.8853 123.501 12.28C123.49 12.4507 123.485 12.6533 123.485 12.888C123.485 13.1227 123.49 13.3307 123.501 13.512C123.512 13.8853 123.597 14.2533 123.757 14.616C123.928 14.9787 124.178 15.2773 124.509 15.512C124.84 15.7467 125.256 15.864 125.757 15.864ZM134.92 17.16C134.109 17.16 133.432 17.0053 132.888 16.696C132.344 16.3867 131.928 15.96 131.64 15.416C131.352 14.8613 131.192 14.232 131.16 13.528C131.149 13.3467 131.144 13.1173 131.144 12.84C131.144 12.552 131.149 12.3227 131.16 12.152C131.192 11.4373 131.352 10.808 131.64 10.264C131.939 9.72 132.36 9.29333 132.904 8.984C133.448 8.67467 134.12 8.52 134.92 8.52C135.72 8.52 136.392 8.67467 136.936 8.984C137.48 9.29333 137.896 9.72 138.184 10.264C138.483 10.808 138.648 11.4373 138.68 12.152C138.691 12.3227 138.696 12.552 138.696 12.84C138.696 13.1173 138.691 13.3467 138.68 13.528C138.648 14.232 138.488 14.8613 138.2 15.416C137.912 15.96 137.496 16.3867 136.952 16.696C136.408 17.0053 135.731 17.16 134.92 17.16ZM134.92 15.928C135.581 15.928 136.109 15.72 136.504 15.304C136.899 14.8773 137.112 14.2587 137.144 13.448C137.155 13.288 137.16 13.0853 137.16 12.84C137.16 12.5947 137.155 12.392 137.144 12.232C137.112 11.4213 136.899 10.808 136.504 10.392C136.109 9.96533 135.581 9.752 134.92 9.752C134.259 9.752 133.725 9.96533 133.32 10.392C132.925 10.808 132.717 11.4213 132.696 12.232C132.685 12.392 132.68 12.5947 132.68 12.84C132.68 13.0853 132.685 13.288 132.696 13.448C132.717 14.2587 132.925 14.8773 133.32 15.304C133.725 15.72 134.259 15.928 134.92 15.928ZM141.068 17C140.961 17 140.87 16.968 140.796 16.904C140.732 16.8293 140.7 16.7387 140.7 16.632V9.064C140.7 8.95733 140.732 8.86667 140.796 8.792C140.87 8.71733 140.961 8.68 141.068 8.68H141.804C141.91 8.68 142.001 8.71733 142.076 8.792C142.15 8.86667 142.188 8.95733 142.188 9.064V9.768C142.401 9.40533 142.694 9.13333 143.068 8.952C143.441 8.77067 143.889 8.68 144.412 8.68H145.052C145.158 8.68 145.244 8.71733 145.308 8.792C145.372 8.856 145.404 8.94133 145.404 9.048V9.704C145.404 9.81067 145.372 9.896 145.308 9.96C145.244 10.024 145.158 10.056 145.052 10.056H144.092C143.516 10.056 143.062 10.2267 142.732 10.568C142.401 10.8987 142.236 11.352 142.236 11.928V16.632C142.236 16.7387 142.198 16.8293 142.124 16.904C142.049 16.968 141.958 17 141.852 17H141.068ZM150.026 17C149.428 17 148.943 16.888 148.57 16.664C148.196 16.4293 147.924 16.104 147.754 15.688C147.583 15.2613 147.498 14.76 147.498 14.184V9.96H146.25C146.143 9.96 146.052 9.928 145.978 9.864C145.914 9.78933 145.882 9.69867 145.882 9.592V9.048C145.882 8.94133 145.914 8.856 145.978 8.792C146.052 8.71733 146.143 8.68 146.25 8.68H147.498V6.008C147.498 5.90133 147.53 5.816 147.594 5.752C147.668 5.67733 147.759 5.64 147.866 5.64H148.618C148.724 5.64 148.81 5.67733 148.874 5.752C148.948 5.816 148.986 5.90133 148.986 6.008V8.68H150.97C151.076 8.68 151.162 8.71733 151.226 8.792C151.3 8.856 151.338 8.94133 151.338 9.048V9.592C151.338 9.69867 151.3 9.78933 151.226 9.864C151.162 9.928 151.076 9.96 150.97 9.96H148.986V14.072C148.986 14.5733 149.071 14.968 149.242 15.256C149.412 15.544 149.716 15.688 150.154 15.688H151.13C151.236 15.688 151.322 15.7253 151.386 15.8C151.46 15.864 151.498 15.9493 151.498 16.056V16.632C151.498 16.7387 151.46 16.8293 151.386 16.904C151.322 16.968 151.236 17 151.13 17H150.026Z" fill="#7D7D7D"/>
<g clip-path="url(#clip0_5_47)">
<path d="M20.942 13.021C21.1466 11.2288 20.808 9.41656 19.9701 7.8192C19.1322 6.22184 17.8336 4.91312 16.2428 4.0628C14.652 3.21247 12.8424 2.85977 11.0487 3.05045C9.25501 3.24113 7.56001 3.96639 6.18354 5.13215C4.80707 6.29791 3.81265 7.85039 3.32927 9.58821C2.84589 11.326 2.89585 13.169 3.47268 14.8781C4.04951 16.5872 5.12658 18.0835 6.56419 19.173C8.0018 20.2624 9.73361 20.8948 11.535 20.988" stroke="#FFB72D" stroke-width="1.5" stroke-linecap="round" stroke-linejoin="round"/>
<path d="M12 7V12L15 15" stroke="#FFB72D" stroke-width="1.5" stroke-linecap="round" stroke-linejoin="round"/>
<path d="M15 19L17 21L21 17" stroke="#FFB72D" stroke-width="1.5" stroke-linecap="round" stroke-linejoin="round"/>
</g>
<defs>
<clipPath id="clip0_5_47">
<rect width="24" height="24" fill="white"/>
</clipPath>
</defs>
</svg>
